<svg width="188" height="188" viewBox="0 0 188 188" fill="none" xmlns="http://www.w3.org/2000/svg">
<circle opacity="0.8" cx="108.5" cy="168.5" r="5.5" fill="#009999"/>
<path d="M77.2306 31.88C77.2306 31.88 77.6232 31.8222 78.4278 31.8165C81.2583 31.7035 88.679 31.6215 96.0298 33.336C104.348 35.2761 108.84 36.9397 114.663 39.6847C120.485 42.4298 125.102 46.2509 129.469 50.8455C135.3 56.98 136.539 62.1855 136.04 67.2743C135.547 72.3096 132.933 79.0132 124.917 82.9368C122.162 84.2855 112.844 88.1627 108.602 88.8697L100.668 90.1919C97.459 90.8739 95.2526 91.0946 95.2526 91.0946L100.668 90.1919C103.343 89.6236 106.714 88.7349 110.085 87.3865C117.936 84.2461 121.745 82.9411 125.185 78.4892C128.626 74.0373 130.85 67.2743 127.223 60.7861C123.195 53.5807 116.701 44.0693 100.605 37.4388C88.2474 32.3483 81.0872 31.7977 78.4278 31.8165C77.6606 31.8471 77.2306 31.88 77.2306 31.88Z" fill="url(#paint0_linear_2489_7522)"/>
<path d="M93.278 50.2709C89.82 56.169 88.5782 61.9164 88.5782 61.9164C88.5782 61.9164 100.736 55.5946 102.719 51.3523C104.703 47.11 101.927 45.1125 101.927 45.1125C101.927 45.1125 96.7361 44.3729 93.278 50.2709Z" fill="url(#paint1_linear_2489_7522)"/>
<path d="M102.175 49.6482C102.758 47.1111 100.969 44.99 100.969 44.99C100.969 44.99 111.533 45.905 111.533 55.5541C111.533 65.2032 98.9729 72.1905 98.9729 72.1905L76.8048 83.7945L58.1731 93.3199H52.9817C52.9817 93.3199 40.3732 93.3199 37.1269 90.0747C33.8806 86.8295 40.2047 84.9174 47.1504 80.9247C54.096 76.9319 69.776 71.1282 84.8735 63.2069C99.971 55.2856 101.593 52.1852 102.175 49.6482Z" fill="url(#paint2_linear_2489_7522)"/>
<path d="M142.183 64.4987C137.288 53.5186 121.234 43.412 121.234 43.412C121.234 43.412 134.17 52.9363 135.571 61.3377C136.971 69.7391 133.125 75.3134 127.884 79.9716C122.644 84.6298 109.66 88.5799 104.295 89.4117C98.9294 90.2435 89.4992 91.4571 79.88 92.3231C70.6406 93.1549 68.4382 93.3208 54.4636 93.3208C40.489 93.3208 36.5888 90.3267 36.3758 88.7462C36.1628 87.1658 41.856 83.6797 41.856 83.6797C41.856 83.6797 35.1814 87.3878 33.7972 89.4117C32.413 91.4356 29.649 93.6124 31.1354 98.8113C32.6218 104.01 41.856 107.129 53.2618 107.129C64.6676 107.129 76.7783 107.185 91.5447 105.187C101.406 103.852 105.999 103.22 116.397 100.267C126.795 97.314 136.818 90.0356 138.815 87.249C140.811 84.4624 147.079 75.4787 142.183 64.4987Z" fill="#009999"/>
<g filter="url(#filter0_d_2489_7522)">
<path d="M99.1073 74.2028L85.3823 81.398C85.3823 81.398 83.3031 121.991 83.3031 131.016C83.3031 140.041 83.9268 153.392 83.9268 153.392C83.9268 153.392 85.7736 139.565 87.0459 131.016C90.385 108.582 99.1073 74.2028 99.1073 74.2028Z" fill="#009999"/>
</g>
<path d="M167.344 118.358C172.382 102.728 172.621 85.9471 168.029 70.1805C163.437 54.4139 154.225 40.3852 141.582 29.9051C128.939 19.4249 113.446 12.9742 97.1013 11.3854C80.7566 9.79661 64.3108 13.1427 49.8863 20.9918C35.4619 28.8409 23.7207 40.8328 16.1782 55.4199C8.63562 70.007 5.6378 86.5198 7.5716 102.827C9.5054 119.135 16.2821 134.488 27.027 146.907C37.772 159.325 51.9922 168.239 67.8523 172.497L69.7084 165.583C55.2303 161.696 42.2492 153.559 32.4406 142.223C22.6319 130.887 16.4457 116.871 14.6804 101.984C12.9151 87.0978 15.6517 72.0239 22.537 58.7079C29.4224 45.3919 40.1404 34.4449 53.3079 27.2798C66.4755 20.1146 81.4882 17.0601 96.4087 18.5104C111.329 19.9608 125.473 25.8494 137.014 35.4163C148.555 44.9833 156.964 57.7895 161.156 72.1823C165.348 86.575 165.13 101.894 160.531 116.162L167.344 118.358Z" fill="url(#paint3_linear_2489_7522)"/>
<path d="M179.582 96.3034C178.716 96.2286 178.135 96.4925 177.215 97.2505L167.1 105.676C167.006 105.755 166.932 105.818 166.844 105.811C166.758 105.803 166.695 105.728 166.615 105.635L158.096 95.599C157.319 94.6945 156.792 94.3348 155.926 94.26C154.766 94.1598 153.961 94.9977 153.86 96.1747C153.803 96.8331 154.012 97.6364 154.21 98.369L162.478 128.882C162.901 130.453 163.655 131.216 164.643 131.302C165.63 131.387 166.503 130.764 167.189 129.288L180.567 100.646C180.888 99.958 181.232 99.2025 181.289 98.5441C181.391 97.3671 180.742 96.4036 179.582 96.3034Z" fill="#009999"/>
<ellipse cx="84.0717" cy="169.801" rx="7.62245" ry="7.19898" fill="#009999"/>
<circle cx="125.995" cy="163.872" r="2.96429" fill="#6EC5C5"/>
<path d="M104.574 114V109.157H105.938C106.403 109.157 106.757 109.188 107.001 109.249C107.338 109.336 107.596 109.526 107.773 109.82C107.917 110.055 107.989 110.329 107.989 110.644C107.989 111.156 107.818 111.549 107.476 111.823C107.328 111.941 107.148 112.027 106.936 112.079C106.726 112.129 106.455 112.154 106.123 112.154H105.665V114H104.574ZM105.637 111.334H105.952C106.255 111.334 106.472 111.302 106.604 111.238C106.8 111.143 106.898 110.957 106.898 110.681C106.898 110.41 106.804 110.217 106.615 110.104C106.476 110.019 106.255 109.977 105.952 109.977H105.637V111.334ZM110.638 113.6C110.46 113.78 110.287 113.907 110.118 113.979C109.95 114.05 109.742 114.085 109.496 114.085C109.132 114.085 108.848 113.993 108.645 113.809C108.424 113.606 108.313 113.329 108.313 112.978C108.313 112.538 108.481 112.212 108.816 112C109.046 111.857 109.425 111.785 109.954 111.785C110.136 111.785 110.348 111.794 110.59 111.812V111.771C110.59 111.55 110.52 111.378 110.381 111.255C110.245 111.132 110.052 111.071 109.804 111.071C109.517 111.071 109.184 111.169 108.806 111.365L108.601 110.616C109.031 110.425 109.486 110.329 109.964 110.329C110.57 110.329 111.018 110.481 111.308 110.784C111.44 110.923 111.529 111.081 111.574 111.259C111.622 111.437 111.646 111.709 111.646 112.076V113.07L111.656 113.392C111.663 113.695 111.673 113.897 111.687 114H110.675L110.638 113.6ZM110.59 112.407C110.449 112.394 110.335 112.387 110.248 112.387C109.956 112.387 109.748 112.43 109.623 112.517C109.477 112.617 109.404 112.762 109.404 112.951C109.404 113.092 109.447 113.207 109.534 113.296C109.62 113.382 109.733 113.426 109.872 113.426C110.141 113.426 110.38 113.271 110.59 112.961V112.407ZM113.478 113.867L112.008 110.415H113.129L113.769 111.98C113.871 112.233 113.974 112.507 114.076 112.804C114.172 112.505 114.273 112.215 114.38 111.932L114.955 110.415H115.997L114.555 113.908C114.388 114.311 114.262 114.596 114.175 114.762C114.089 114.929 113.992 115.073 113.885 115.196C113.65 115.463 113.32 115.596 112.894 115.596C112.577 115.596 112.282 115.543 112.008 115.436L112.186 114.639C112.368 114.717 112.531 114.755 112.675 114.755C112.796 114.755 112.897 114.728 112.979 114.673C113.063 114.619 113.146 114.523 113.229 114.386C113.306 114.256 113.389 114.083 113.478 113.867ZM116.592 114V111.618C116.592 111.333 116.58 110.932 116.558 110.415H117.556L117.593 111.098C117.771 110.611 118.072 110.367 118.496 110.367C118.612 110.367 118.73 110.385 118.851 110.421L118.803 111.331C118.667 111.303 118.549 111.29 118.451 111.29C118.246 111.29 118.073 111.356 117.932 111.488C117.793 111.62 117.696 111.81 117.641 112.059V114H116.592ZM121.045 110.329C121.67 110.329 122.137 110.507 122.447 110.862C122.743 111.204 122.891 111.652 122.891 112.206C122.891 112.816 122.716 113.294 122.365 113.638C122.059 113.936 121.62 114.085 121.045 114.085C120.426 114.085 119.96 113.908 119.647 113.552C119.351 113.213 119.203 112.757 119.203 112.185C119.203 111.588 119.379 111.118 119.729 110.773C120.035 110.477 120.473 110.329 121.045 110.329ZM121.045 111.098C120.751 111.098 120.541 111.241 120.413 111.525C120.333 111.705 120.293 111.929 120.293 112.195C120.293 112.56 120.357 112.838 120.485 113.029C120.615 113.221 120.802 113.316 121.045 113.316C121.342 113.316 121.554 113.174 121.681 112.889C121.761 112.709 121.801 112.481 121.801 112.206C121.801 111.85 121.736 111.577 121.606 111.385C121.476 111.194 121.289 111.098 121.045 111.098ZM123.735 114V108.883H124.792V114H123.735ZM125.902 114V108.883H126.958V114H125.902ZM105.442 122V118.011H104.041V117.157H107.955V118.011H106.533V122H105.442ZM108.095 122V119.618C108.095 119.333 108.083 118.932 108.061 118.415H109.059L109.096 119.098C109.274 118.611 109.575 118.367 109.999 118.367C110.115 118.367 110.233 118.385 110.354 118.421L110.306 119.331C110.169 119.303 110.052 119.29 109.954 119.29C109.749 119.29 109.576 119.356 109.435 119.488C109.296 119.62 109.199 119.81 109.144 120.059V122H108.095ZM114.278 118.415V120.67C114.278 120.983 114.289 121.426 114.312 122H113.341L113.307 121.504C113.097 121.721 112.903 121.872 112.723 121.959C112.543 122.043 112.327 122.085 112.077 122.085C111.6 122.085 111.268 121.916 111.079 121.576C110.972 121.382 110.918 121.068 110.918 120.633V118.415H111.974V120.554C111.974 120.787 111.995 120.951 112.036 121.046C112.111 121.215 112.249 121.299 112.449 121.299C112.723 121.299 112.98 121.112 113.222 120.739V118.415H114.278ZM116.233 120.558C116.274 121.073 116.586 121.33 117.169 121.33C117.545 121.33 117.924 121.213 118.304 120.978L118.667 121.727C118.213 121.966 117.707 122.085 117.149 122.085C116.458 122.085 115.941 121.915 115.597 121.573C115.28 121.261 115.122 120.811 115.122 120.223C115.122 119.664 115.278 119.21 115.59 118.859C115.907 118.506 116.367 118.329 116.971 118.329C117.534 118.329 117.966 118.473 118.267 118.76C118.456 118.942 118.584 119.16 118.653 119.413C118.723 119.663 118.76 120.045 118.762 120.558H116.233ZM117.699 119.864C117.692 119.688 117.655 119.536 117.586 119.406C117.468 119.182 117.266 119.071 116.981 119.071C116.763 119.071 116.586 119.141 116.452 119.283C116.317 119.424 116.243 119.618 116.229 119.864H117.699ZM121.363 122V117.157H122.566L123.858 119.337C124.041 119.645 124.237 120.024 124.446 120.476C124.435 120.273 124.429 119.964 124.429 119.549V117.157H125.479V122H124.296L123.086 119.97C122.844 119.566 122.614 119.133 122.396 118.671C122.407 118.96 122.413 119.348 122.413 119.833V122H121.363ZM128.175 118.329C128.8 118.329 129.267 118.507 129.577 118.862C129.873 119.204 130.021 119.652 130.021 120.206C130.021 120.816 129.846 121.294 129.495 121.638C129.189 121.936 128.75 122.085 128.175 122.085C127.556 122.085 127.09 121.908 126.777 121.552C126.481 121.213 126.333 120.757 126.333 120.185C126.333 119.588 126.508 119.118 126.859 118.773C127.165 118.477 127.603 118.329 128.175 118.329ZM128.175 119.098C127.881 119.098 127.671 119.241 127.543 119.525C127.463 119.705 127.423 119.929 127.423 120.195C127.423 120.56 127.487 120.838 127.615 121.029C127.745 121.221 127.931 121.316 128.175 121.316C128.472 121.316 128.683 121.174 128.811 120.889C128.891 120.709 128.931 120.481 128.931 120.206C128.931 119.85 128.866 119.577 128.736 119.385C128.606 119.194 128.419 119.098 128.175 119.098ZM130.872 122V119.618C130.872 119.333 130.861 118.932 130.838 118.415H131.836L131.874 119.098C132.051 118.611 132.352 118.367 132.776 118.367C132.892 118.367 133.011 118.385 133.131 118.421L133.083 119.331C132.947 119.303 132.829 119.29 132.731 119.29C132.526 119.29 132.353 119.356 132.212 119.488C132.073 119.62 131.976 119.81 131.921 120.059V122H130.872ZM134.095 119.184H133.521V118.415H134.095V117.642L135.151 117.447V118.415H135.944V119.184H135.151V120.629C135.151 120.825 135.174 120.967 135.22 121.053C135.288 121.185 135.423 121.251 135.623 121.251C135.721 121.251 135.846 121.226 135.999 121.176L136.091 121.956C135.802 122.042 135.511 122.085 135.22 122.085C134.78 122.085 134.469 121.951 134.287 121.682C134.218 121.58 134.169 121.449 134.14 121.289C134.11 121.13 134.095 120.91 134.095 120.629V119.184ZM136.689 122V116.883H137.752V118.832C138.081 118.497 138.468 118.329 138.915 118.329C139.398 118.329 139.735 118.499 139.926 118.838C140.036 119.032 140.09 119.347 140.09 119.782V122H139.034V119.86C139.034 119.628 139.013 119.464 138.969 119.368C138.894 119.2 138.752 119.115 138.542 119.115C138.262 119.115 137.999 119.302 137.752 119.676V122H136.689Z" fill="#009999"/>
<defs>
<filter id="filter0_d_2489_7522" x="80.3031" y="74.2028" width="21.8042" height="91.1893" filterUnits="userSpaceOnUse" color-interpolation-filters="sRGB">
<feFlood flood-opacity="0" result="BackgroundImageFix"/>
<feColorMatrix in="SourceAlpha" type="matrix" values="0 0 0 0 0 0 0 0 0 0 0 0 0 0 0 0 0 0 127 0" result="hardAlpha"/>
<feOffset dy="9"/>
<feGaussianBlur stdDeviation="1.5"/>
<feComposite in2="hardAlpha" operator="out"/>
<feColorMatrix type="matrix" values="0 0 0 0 0 0 0 0 0 0 0 0 0 0 0 0 0 0 0.25 0"/>
<feBlend mode="normal" in2="BackgroundImageFix" result="effect1_dropShadow_2489_7522"/>
<feBlend mode="normal" in="SourceGraphic" in2="effect1_dropShadow_2489_7522" result="shape"/>
</filter>
<linearGradient id="paint0_linear_2489_7522" x1="126.401" y1="51.7887" x2="110.636" y2="68.1732" gradientUnits="userSpaceOnUse">
<stop stop-color="#4BB7B7"/>
<stop offset="1" stop-color="#004141"/>
</linearGradient>
<linearGradient id="paint1_linear_2489_7522" x1="95.9945" y1="51.7891" x2="100.444" y2="56.2388" gradientUnits="userSpaceOnUse">
<stop stop-color="#009999"/>
<stop offset="1" stop-color="#003333"/>
</linearGradient>
<linearGradient id="paint2_linear_2489_7522" x1="105.636" y1="52.5308" x2="44.0813" y2="91.0951" gradientUnits="userSpaceOnUse">
<stop stop-color="#4BB7B7"/>
<stop offset="1" stop-color="#004141"/>
</linearGradient>
<linearGradient id="paint3_linear_2489_7522" x1="22.5425" y1="142.741" x2="163.165" y2="37.6442" gradientUnits="userSpaceOnUse">
<stop stop-color="#62BCBC"/>
<stop offset="1" stop-color="#009999"/>
</linearGradient>
</defs>
</svg>
